<svg width="720" height="220" viewBox="0 0 720 220" fill="none" xmlns="http://www.w3.org/2000/svg" role="img" aria-labelledby="title desc">
  <title id="title">Resux logo</title>
  <desc id="desc">The Resux wordmark beside a resumable route monogram.</desc>
  <defs>
    <linearGradient id="surface" x1="18" y1="14" x2="676" y2="228" gradientUnits="userSpaceOnUse">
      <stop stop-color="#111827"/>
      <stop offset="1" stop-color="#020617"/>
    </linearGradient>
    <linearGradient id="markPanel" x1="46" y1="45" x2="172" y2="176" gradientUnits="userSpaceOnUse">
      <stop stop-color="#172033"/>
      <stop offset="1" stop-color="#030712"/>
    </linearGradient>
    <linearGradient id="route" x1="78" y1="67" x2="154" y2="151" gradientUnits="userSpaceOnUse">
      <stop stop-color="#22D3EE"/>
      <stop offset="0.58" stop-color="#7C3AED"/>
      <stop offset="1" stop-color="#10B981"/>
    </linearGradient>
    <linearGradient id="word" x1="222" y1="67" x2="590" y2="153" gradientUnits="userSpaceOnUse">
      <stop stop-color="#F8FAFC"/>
      <stop offset="0.72" stop-color="#D7E2F2"/>
      <stop offset="1" stop-color="#A7F3D0"/>
    </linearGradient>
    <filter id="glow" x="44" y="42" width="148" height="148" filterUnits="userSpaceOnUse" color-interpolation-filters="sRGB">
      <feGaussianBlur stdDeviation="8"/>
    </filter>
  </defs>
  <rect x="10" y="10" width="700" height="200" rx="36" fill="url(#surface)"/>
  <rect x="10.5" y="10.5" width="699" height="199" rx="35.5" stroke="#F8FAFC" stroke-opacity="0.1"/>
  <path d="M520 33H668" stroke="#22D3EE" stroke-opacity="0.16" stroke-width="2" stroke-linecap="round"/>
  <path d="M558 188H684" stroke="#10B981" stroke-opacity="0.16" stroke-width="2" stroke-linecap="round"/>
  <rect x="54" y="50" width="120" height="120" rx="30" fill="url(#markPanel)"/>
  <path d="M80 82C91 68 110 62 128 65C146 68 159 81 159 98C159 116 145 128 124 128H99V150" stroke="#38BDF8" stroke-opacity="0.2" stroke-width="24" stroke-linecap="round" stroke-linejoin="round" filter="url(#glow)"/>
  <path d="M83 149V72H123C144 72 157 82 157 98C157 114 144 124 123 124H99" stroke="url(#route)" stroke-width="13" stroke-linecap="round" stroke-linejoin="round"/>
  <path d="M119 124L153 149" stroke="url(#route)" stroke-width="13" stroke-linecap="round" stroke-linejoin="round"/>
  <path d="M88 87H123C133 87 139 91 139 98C139 105 133 109 123 109H88" stroke="#F8FAFC" stroke-width="7" stroke-linecap="round" stroke-linejoin="round"/>
  <circle cx="83" cy="72" r="6" fill="#22D3EE"/>
  <circle cx="153" cy="149" r="6" fill="#10B981"/>
  <text x="220" y="131" fill="url(#word)" font-family="Inter, ui-sans-serif, system-ui, -apple-system, BlinkMacSystemFont, Segoe UI, sans-serif" font-size="78" font-weight="850">Resux</text>
  <text x="225" y="165" fill="#94A3B8" font-family="Inter, ui-sans-serif, system-ui, sans-serif" font-size="18" font-weight="700" letter-spacing="4">RESUMABLE WEB RUNTIME</text>
</svg>
