<svg width="96" height="96" viewBox="0 0 96 96" fill="none" xmlns="http://www.w3.org/2000/svg" role="img" aria-labelledby="title desc">
  <title id="title">Resux mark</title>
  <desc id="desc">Resux resumability loop mark.</desc>
  <defs>
    <linearGradient id="g" x1="14" y1="9" x2="84" y2="90" gradientUnits="userSpaceOnUse">
      <stop stop-color="#22D3EE"/>
      <stop offset="0.48" stop-color="#7C3AED"/>
      <stop offset="1" stop-color="#10B981"/>
    </linearGradient>
  </defs>
  <rect width="96" height="96" rx="24" fill="#070A13"/>
  <circle cx="48" cy="48" r="38" fill="url(#g)" opacity="0.18"/>
  <path d="M25 31c11-13 33-15 47-4l6 5H62c-8-4-19-3-25 4-8 9-7 23 2 31 8 6 19 7 27 1" stroke="url(#g)" stroke-width="9" stroke-linecap="round" stroke-linejoin="round"/>
  <path d="M71 65c-11 13-33 15-47 4l-6-5h16c8 4 19 3 25-4 8-9 7-23-2-31-8-6-19-7-27-1" stroke="url(#g)" stroke-width="9" stroke-linecap="round" stroke-linejoin="round"/>
  <path d="M48 27v42" stroke="#F8FAFC" stroke-width="8" stroke-linecap="round"/>
  <path d="M37 48h22" stroke="#F8FAFC" stroke-width="8" stroke-linecap="round"/>
</svg>
