<svg width="1200" height="630" viewBox="0 0 1200 630" fill="none" xmlns="http://www.w3.org/2000/svg">
  <defs>
    <radialGradient id="r1" cx="0" cy="0" r="1" gradientUnits="userSpaceOnUse" gradientTransform="translate(245 122) rotate(45) scale(620)">
      <stop stop-color="#7C3AED" stop-opacity="0.58"/>
      <stop offset="1" stop-color="#070A13" stop-opacity="0"/>
    </radialGradient>
    <radialGradient id="r2" cx="0" cy="0" r="1" gradientUnits="userSpaceOnUse" gradientTransform="translate(983 504) rotate(45) scale(480)">
      <stop stop-color="#06B6D4" stop-opacity="0.55"/>
      <stop offset="1" stop-color="#070A13" stop-opacity="0"/>
    </radialGradient>
    <linearGradient id="g" x1="98" y1="92" x2="194" y2="200" gradientUnits="userSpaceOnUse">
      <stop stop-color="#22D3EE"/>
      <stop offset="0.48" stop-color="#7C3AED"/>
      <stop offset="1" stop-color="#10B981"/>
    </linearGradient>
  </defs>
  <rect width="1200" height="630" fill="#070A13"/>
  <rect width="1200" height="630" fill="url(#r1)"/>
  <rect width="1200" height="630" fill="url(#r2)"/>
  <rect x="86" y="88" width="132" height="132" rx="33" fill="#070A13" stroke="rgba(255,255,255,0.16)" stroke-width="1"/>
  <circle cx="152" cy="154" r="52" fill="url(#g)" opacity="0.18"/>
  <path d="M120 130c16-18 46-21 65-5l8 6h-22c-11-6-26-4-34 5-11 13-9 32 3 43 11 9 27 10 38 1" stroke="url(#g)" stroke-width="12" stroke-linecap="round" stroke-linejoin="round"/>
  <path d="M184 178c-16 18-46 21-65 5l-8-6h22c11 6 26 4 34-5 11-13 9-32-3-43-11-9-27-10-38-1" stroke="url(#g)" stroke-width="12" stroke-linecap="round" stroke-linejoin="round"/>
  <path d="M152 120v66" stroke="#F8FAFC" stroke-width="11" stroke-linecap="round"/>
  <path d="M135 154h34" stroke="#F8FAFC" stroke-width="11" stroke-linecap="round"/>
  <text x="86" y="318" fill="#F8FAFC" font-family="Inter, ui-sans-serif, system-ui, sans-serif" font-size="86" font-weight="850" letter-spacing="-4">Resux Documentation</text>
  <text x="92" y="390" fill="#C4B5FD" font-family="Inter, ui-sans-serif, system-ui, sans-serif" font-size="36" font-weight="700">Server-rendered Vue-like apps that resume on interaction.</text>
  <text x="94" y="486" fill="#94A3B8" font-family="Inter, ui-sans-serif, system-ui, sans-serif" font-size="28" font-weight="600">resuxjs - custom resumable runtime - file routing - SSR - islands</text>
</svg>
